<svg xmlns="http://www.w3.org/2000/svg" xmlns:xlink="http://www.w3.org/1999/xlink" viewBox="0 0 800 600">
  <!-- Background -->
  <rect width="800" height="600" fill="#f0f8ff" rx="20" ry="20" />
  
  <!-- Title -->
  <text x="400" y="60" font-family="Comic Sans MS, Comic Sans, cursive" font-size="42" fill="#222" text-anchor="middle" font-weight="bold">Electricity Explorer</text>
  
  <!-- Circuit Board Background -->
  <rect x="100" y="100" width="600" height="400" fill="#ddf0ff" rx="10" ry="10" stroke="#99ccff" stroke-width="3" />
  <g opacity="0.2">
    <!-- Circuit traces in background -->
    <path d="M100,300 H250 V200 H400 V400 H550 V300 H700" stroke="#0077cc" stroke-width="5" fill="none" />
    <path d="M250,300 H400 V250 H550 V350 H650" stroke="#0077cc" stroke-width="5" fill="none" />
    <circle cx="250" cy="300" r="8" fill="#0077cc" />
    <circle cx="400" cy="250" r="8" fill="#0077cc" />
    <circle cx="400" cy="400" r="8" fill="#0077cc" />
    <circle cx="550" cy="300" r="8" fill="#0077cc" />
    <circle cx="550" cy="350" r="8" fill="#0077cc" />
  </g>
  
  <!-- Battery -->
  <g transform="translate(170, 350)">
    <rect x="-20" y="-30" width="40" height="60" rx="3" ry="3" fill="#f0f0f0" stroke="#666" stroke-width="2" />
    <line x1="-10" y1="-40" x2="-10" y2="-30" stroke="#666" stroke-width="3" />
    <line x1="10" y1="-40" x2="10" y2="-30" stroke="#666" stroke-width="3" />
    <line x1="0" y1="-45" x2="0" y2="-40" stroke="#666" stroke-width="3" />
    <text x="0" y="10" font-family="Comic Sans MS, Comic Sans, cursive" font-size="16" text-anchor="middle" fill="#666">9V</text>
  </g>
  
  <!-- Resistor -->
  <g transform="translate(300, 250)">
    <rect x="-40" y="-15" width="80" height="30" rx="5" ry="5" fill="white" stroke="#666" stroke-width="2" />
    <text x="0" y="7" font-family="Comic Sans MS, Comic Sans, cursive" font-size="16" text-anchor="middle" fill="#666">220Ω</text>
  </g>
  
  <!-- Capacitor -->
  <g transform="translate(450, 200)">
    <line x1="-10" y1="-20" x2="-10" y2="20" stroke="#666" stroke-width="3" />
    <line x1="10" y1="-20" x2="10" y2="20" stroke="#666" stroke-width="3" />
    <text x="30" y="3" font-family="Comic Sans MS, Comic Sans, cursive" font-size="16" text-anchor="middle" fill="#666">10µF</text>
  </g>
  
  <!-- Inductor -->
  <g transform="translate(450, 350)">
    <path d="M-30,0 C-20,-15 -10,15 0,-15 C10,15 20,-15 30,0" stroke="#666" stroke-width="3" fill="none" />
    <text x="0" y="25" font-family="Comic Sans MS, Comic Sans, cursive" font-size="16" text-anchor="middle" fill="#666">Inductor</text>
  </g>
  
  <!-- LED with glow -->
  <g transform="translate(600, 280)">
    <!-- Glow -->
    <circle cx="0" cy="0" r="40" fill="#ffd700" opacity="0.3" filter="blur(10px)" />
    <!-- LED body -->
    <circle cx="0" cy="0" r="25" fill="#fffbe6" stroke="#666" stroke-width="2" />
    <text x="0" y="8" font-family="Arial" font-size="24" text-anchor="middle" fill="#666">💡</text>
  </g>
  
  <!-- Electron animation -->
  <g>
    <circle cx="200" cy="300" r="6" fill="#ffd700" opacity="0.8">
      <animate attributeName="cx" values="170;300;450;600;600" dur="3s" repeatCount="indefinite" />
      <animate attributeName="cy" values="350;250;200;280;280" dur="3s" repeatCount="indefinite" />
    </circle>
    <circle cx="170" cy="350" r="6" fill="#ffd700" opacity="0.8">
      <animate attributeName="cx" values="170;300;450;600;600" dur="3s" begin="0.5s" repeatCount="indefinite" />
      <animate attributeName="cy" values="350;250;200;280;280" dur="3s" begin="0.5s" repeatCount="indefinite" />
    </circle>
    <circle cx="170" cy="350" r="6" fill="#ffd700" opacity="0.8">
      <animate attributeName="cx" values="170;300;450;600;600" dur="3s" begin="1s" repeatCount="indefinite" />
      <animate attributeName="cy" values="350;250;200;280;280" dur="3s" begin="1s" repeatCount="indefinite" />
    </circle>
    <circle cx="170" cy="350" r="6" fill="#ffd700" opacity="0.8">
      <animate attributeName="cx" values="170;300;450;600;600" dur="3s" begin="1.5s" repeatCount="indefinite" />
      <animate attributeName="cy" values="350;250;200;280;280" dur="3s" begin="1.5s" repeatCount="indefinite" />
    </circle>
    <circle cx="170" cy="350" r="6" fill="#ffd700" opacity="0.8">
      <animate attributeName="cx" values="170;300;450;600;600" dur="3s" begin="2s" repeatCount="indefinite" />
      <animate attributeName="cy" values="350;250;200;280;280" dur="3s" begin="2s" repeatCount="indefinite" />
    </circle>
  </g>
  
  <!-- Wires connecting components -->
  <g fill="none" stroke="#666" stroke-width="3">
    <!-- Connect battery to resistor -->
    <path d="M170,320 V300 H260" />
    <!-- Connect resistor to capacitor -->
    <path d="M340,250 H400 V200" />
    <!-- Connect capacitor to LED -->
    <path d="M450,180 H550 V280" />
    <!-- Connect LED back to battery (return path) -->
    <path d="M600,305 V400 H170 V380" />
    <!-- Connect inductor -->
    <path d="M300,250 V350 H420" />
    <path d="M480,350 H550 V305" />
  </g>
  
  <!-- Kid exploring -->
  <g transform="translate(80, 350)">
    <!-- Child silhouette -->
    <circle cx="0" cy="-60" r="20" fill="#ffcc99" stroke="#666" stroke-width="2" /> <!-- Head -->
    <path d="M0,-40 V0 M-20,-20 H20 M-15,20 L0,0 L15,20" stroke="#666" stroke-width="3" fill="none" /> <!-- Body and arms -->
    <circle cx="10" cy="-65" r="3" fill="#666" /> <!-- Eye -->
    <path d="M-5,-55 C0,-53 5,-53 10,-55" stroke="#666" stroke-width="1.5" fill="none" /> <!-- Smile -->
    
    <!-- Thinking bubble -->
    <circle cx="30" cy="-85" r="5" fill="white" stroke="#666" stroke-width="1" />
    <circle cx="40" cy="-95" r="8" fill="white" stroke="#666" stroke-width="1" />
    <circle cx="55" cy="-105" r="15" fill="white" stroke="#666" stroke-width="1" />
    <text x="55" y="-100" font-family="Comic Sans MS" font-size="12" text-anchor="middle">⚡?</text>
  </g>
  
  <!-- Project features -->
  <g transform="translate(400, 530)">
    <rect x="-300" y="-30" width="600" height="60" rx="10" ry="10" fill="#ffe066" stroke="#ffd700" stroke-width="3" />
    <text x="0" y="5" font-family="Comic Sans MS, Comic Sans, cursive" font-size="22" text-anchor="middle" fill="#222">Interactive Circuits • Visual Learning • Fun Experiments</text>
  </g>
</svg>